<?xml version="1.0" encoding="UTF-8" standalone="no" ?>
<!DOCTYPE svg PUBLIC "-//W3C//DTD SVG 1.1//EN" "http://www.w3.org/Graphics/SVG/1.1/DTD/svg11.dtd">
<svg xmlns="http://www.w3.org/2000/svg" xmlns:xlink="http://www.w3.org/1999/xlink" version="1.1" width="1280" height="1024" viewBox="0 0 1280 1024" xml:space="preserve">
<desc>Created with Fabric.js 4.4.0</desc>
<defs>
</defs>
<g transform="matrix(1 0 0 1 640 512)" id="background-logo"  >
<rect style="stroke: none; stroke-width: 0; stroke-dasharray: none; stroke-linecap: butt; stroke-dashoffset: 0; stroke-linejoin: miter; stroke-miterlimit: 4; fill: rgb(255,255,255); fill-opacity: 0; fill-rule: nonzero; opacity: 1;"  paint-order="stroke"  x="-640" y="-512" rx="0" ry="0" width="1280" height="1024" />
</g>
<g transform="matrix(1.9211538461538462 0 0 1.9211538461538462 640 373.7444532423705)" id="logo-logo"  >
<g style=""  paint-order="stroke"   >
		<g transform="matrix(0.07192050915246738 0 0 -0.07192050915246738 0 0)"  >
<path style="stroke: none; stroke-width: 1; stroke-dasharray: none; stroke-linecap: butt; stroke-dashoffset: 0; stroke-linejoin: miter; stroke-miterlimit: 4; fill: rgb(255,136,51); fill-rule: nonzero; opacity: 1;"  paint-order="stroke"  transform=" translate(-2350, -1185.74)" d="M 3991.34 2038.71 C 3551.65 2253.31 2968.75 2371.48 2350 2371.48 C 1731.25 2371.48 1148.35 2253.31 708.66 2038.71 C 251.68 1815.68 0 1512.75 0 1185.73 C 0 858.73 251.68 555.801 708.66 332.758 C 1148.35 118.176 1731.25 0 2350 0 C 2968.75 0 3551.65 118.176 3991.34 332.758 C 4448.32 555.801 4700 858.73 4700 1185.73 C 4700 1512.75 4448.32 1815.68 3991.34 2038.71 z M 3924.82 469.043 C 3505.45 264.363 2946.16 151.645 2350 151.645 C 1753.85 151.645 1194.55 264.363 775.1759999999999 469.043 C 373.0779999999999 665.281 151.64499999999998 919.8050000000001 151.64499999999998 1185.73 C 151.64499999999998 1451.66 373.078 1706.2 775.1759999999999 1902.45 C 1176.6999999999998 2098.41 1706.59 2209.79 2274.18 2218.95 L 2274.18 1921.49 L 2172.66 1921.49 L 1999.09 1653.95 L 2350 1653.95 L 2700.91 1653.95 L 2527.3399999999997 1921.49 L 2425.8199999999997 1921.49 L 2425.8199999999997 2218.95 C 2993.4199999999996 2209.79 3523.2999999999997 2098.41 3924.8199999999997 1902.4499999999998 C 4326.92 1706.1999999999998 4548.36 1451.6599999999999 4548.36 1185.7299999999998 C 4548.36 919.8049999999998 4326.92 665.2809999999998 3924.8199999999997 469.0429999999998" stroke-linecap="round" />
</g>
		<g transform="matrix(0.07192050915246738 0 0 -0.07192050915246738 0.0005034435640709489 5.000956643662221)"  >
<path style="stroke: none; stroke-width: 1; stroke-dasharray: none; stroke-linecap: butt; stroke-dashoffset: 0; stroke-linejoin: miter; stroke-miterlimit: 4; fill: rgb(255,136,51); fill-rule: nonzero; opacity: 1;"  paint-order="stroke"  transform=" translate(-2350.007, -1116.2055)" d="M 840.734 1210.48 L 1166.76 1210.48 L 1013.33 870.281 L 1179.67 870.281 L 1333.1000000000001 1210.48 L 3366.91 1210.48 L 3520.33 870.281 L 3686.67 870.281 L 3533.25 1210.48 L 3859.2799999999997 1210.48 L 3859.2799999999997 1362.13 L 840.734 1362.13 L 840.734 1210.48" stroke-linecap="round" />
</g>
		<g transform="matrix(0.07192050915246738 0 0 -0.07192050915246738 0.00035960254581368645 37.0369405585007)"  >
<path style="stroke: none; stroke-width: 1; stroke-dasharray: none; stroke-linecap: butt; stroke-dashoffset: 0; stroke-linejoin: miter; stroke-miterlimit: 4; fill: rgb(255,136,51); fill-rule: nonzero; opacity: 1;"  paint-order="stroke"  transform=" translate(-2350.005, -670.7695)" d="M 2424.86 741.969 L 2350 972.375 L 2275.14 741.969 L 2032.88 741.969 L 2228.87 599.57 L 2154 369.164 L 2350 511.563 L 2546 369.164 L 2471.13 599.5699999999999 L 2667.13 741.9689999999999 L 2424.86 741.9689999999999" stroke-linecap="round" />
</g>
		<g transform="matrix(0.07192050915246738 0 0 -0.07192050915246738 -42.1587236575391 47.882733139965694)"  >
<path style="stroke: none; stroke-width: 1; stroke-dasharray: none; stroke-linecap: butt; stroke-dashoffset: 0; stroke-linejoin: miter; stroke-miterlimit: 4; fill: rgb(255,136,51); fill-rule: nonzero; opacity: 1;"  paint-order="stroke"  transform=" translate(-1763.815, -519.967)" d="M 1801.25 555.566 L 1763.82 670.77 L 1726.3799999999999 555.566 L 1605.25 555.566 L 1703.25 484.367 L 1665.82 369.164 L 1763.82 440.363 L 1861.81 369.164 L 1824.3799999999999 484.36699999999996 L 1922.3799999999999 555.5659999999999 L 1801.25 555.5659999999999" stroke-linecap="round" />
</g>
		<g transform="matrix(0.07192050915246738 0 0 -0.07192050915246738 42.15944286263061 47.882733139965694)"  >
<path style="stroke: none; stroke-width: 1; stroke-dasharray: none; stroke-linecap: butt; stroke-dashoffset: 0; stroke-linejoin: miter; stroke-miterlimit: 4; fill: rgb(255,136,51); fill-rule: nonzero; opacity: 1;"  paint-order="stroke"  transform=" translate(-2936.195, -519.967)" d="M 2973.63 555.566 L 2936.2 670.77 L 2898.77 555.566 L 2777.63 555.566 L 2875.63 484.367 L 2838.2000000000003 369.164 L 2936.2000000000003 440.363 L 3034.2000000000003 369.164 L 2996.76 484.36699999999996 L 3094.76 555.5659999999999 L 2973.63 555.5659999999999" stroke-linecap="round" />
</g>
</g>
</g>
<g transform="matrix(1.9211538461538462 0 0 1.9211538461538462 644.0483814603365 634.3209608076216)" id="text-logo"  >
<g style=""  paint-order="stroke"   >
		<g transform="matrix(1 0 0 1 5.684342e-14 0)" id="text-logo-path-0"  >
<path style="stroke: none; stroke-width: 0; stroke-dasharray: none; stroke-linecap: butt; stroke-dashoffset: 0; stroke-linejoin: miter; stroke-miterlimit: 4; fill: rgb(255,136,51); fill-rule: nonzero; opacity: 1;"  paint-order="stroke"  transform=" translate(-209.195, 28.654999999999998)" d="M 34.07 0 L 17.33 -25.21 L 17.33 0 L 5.73 0 L 5.73 -52.63 L 17.33 -52.63 L 17.33 -29 L 34 -52.63 L 48.69 -52.63 L 29.36 -27.18 L 48.23 0 L 34.07 0 Z M 66.34 0.77 Q 60.57 0.77 56.13 -1.41 Q 51.68 -3.59 49.22 -7.61 Q 46.76 -11.64 46.76 -17.02 L 46.76 -17.02 Q 46.76 -22.29 49.24 -26.35 Q 51.71 -30.41 56.16 -32.66 Q 60.61 -34.91 66.34 -34.91 L 66.34 -34.91 Q 72.11 -34.91 76.54 -32.66 Q 80.96 -30.41 83.41 -26.35 Q 85.85 -22.29 85.85 -17.02 L 85.85 -17.02 Q 85.85 -11.64 83.41 -7.61 Q 80.96 -3.59 76.55 -1.41 Q 72.14 0.77 66.34 0.77 L 66.34 0.77 Z M 58.36 -16.95 Q 58.36 -13.18 60.19 -10.74 Q 62.02 -8.3 66.34 -8.3 L 66.34 -8.3 Q 70.59 -8.3 72.42 -10.74 Q 74.25 -13.18 74.25 -16.95 L 74.25 -16.95 Q 74.25 -20.67 72.37 -23.27 Q 70.49 -25.88 66.34 -25.88 L 66.34 -25.88 Q 62.12 -25.88 60.24 -23.27 Q 58.36 -20.67 58.36 -16.95 L 58.36 -16.95 Z M 93.66 0 L 93.66 -25.17 L 88.8 -25.17 L 88.8 -34.14 L 93.66 -34.14 L 93.66 -45.74 Q 93.66 -49.85 95.08 -52.61 Q 96.5 -55.37 98.98 -56.72 Q 101.46 -58.08 104.66 -58.08 L 104.66 -58.08 L 113.27 -58.08 L 113.27 -49.01 L 109.09 -49.01 Q 107.51 -49.01 106.7 -48.55 Q 105.89 -48.09 105.59 -47.13 Q 105.29 -46.16 105.29 -44.37 L 105.29 -44.37 L 105.29 -34.14 L 113.27 -34.14 L 113.27 -25.17 L 105.29 -25.17 L 105.29 0 L 93.66 0 Z M 119.64 0 L 119.64 -25.17 L 114.79 -25.17 L 114.79 -34.14 L 119.64 -34.14 L 119.64 -45.74 Q 119.64 -49.85 121.06 -52.61 Q 122.48 -55.37 124.96 -56.72 Q 127.44 -58.08 130.64 -58.08 L 130.64 -58.08 L 139.25 -58.08 L 139.25 -49.01 L 135.07 -49.01 Q 133.49 -49.01 132.68 -48.55 Q 131.87 -48.09 131.57 -47.13 Q 131.27 -46.16 131.27 -44.37 L 131.27 -44.37 L 131.27 -34.14 L 139.25 -34.14 L 139.25 -25.17 L 131.27 -25.17 L 131.27 0 L 119.64 0 Z M 160.73 0.77 Q 154.9 0.77 150.38 -1.42 Q 145.86 -3.62 143.35 -7.65 Q 140.84 -11.67 140.84 -17.02 L 140.84 -17.02 Q 140.84 -22.25 143.4 -26.33 Q 145.97 -30.41 150.5 -32.66 Q 155.04 -34.91 160.73 -34.91 L 160.73 -34.91 Q 165.97 -34.91 170.28 -32.87 Q 174.59 -30.83 177.1 -26.95 Q 179.61 -23.06 179.61 -17.79 L 179.61 -17.79 L 179.61 -14.87 L 153.14 -14.87 Q 153.39 -11.6 155.36 -9.56 Q 157.32 -7.52 160.49 -7.52 L 160.49 -7.52 Q 162.42 -7.52 163.92 -8.16 Q 165.41 -8.79 166.31 -9.81 Q 167.2 -10.83 167.45 -11.99 L 167.45 -11.99 L 179.23 -11.99 Q 177.57 -5.77 172.67 -2.5 Q 167.77 0.77 160.73 0.77 L 160.73 0.77 Z M 153.28 -21.13 L 167.31 -21.13 Q 167.17 -22.78 166.29 -24.12 Q 165.41 -25.45 163.86 -26.24 Q 162.32 -27.04 160.35 -27.04 L 160.35 -27.04 Q 157.32 -27.04 155.57 -25.4 Q 153.81 -23.77 153.28 -21.13 L 153.28 -21.13 Z M 204.29 0.77 Q 198.46 0.77 193.94 -1.42 Q 189.42 -3.62 186.91 -7.65 Q 184.39 -11.67 184.39 -17.02 L 184.39 -17.02 Q 184.39 -22.25 186.96 -26.33 Q 189.53 -30.41 194.06 -32.66 Q 198.6 -34.91 204.29 -34.91 L 204.29 -34.91 Q 209.53 -34.91 213.84 -32.87 Q 218.14 -30.83 220.66 -26.95 Q 223.17 -23.06 223.17 -17.79 L 223.17 -17.79 L 223.17 -14.87 L 196.7 -14.87 Q 196.95 -11.6 198.91 -9.56 Q 200.88 -7.52 204.05 -7.52 L 204.05 -7.52 Q 205.98 -7.52 207.47 -8.16 Q 208.97 -8.79 209.87 -9.81 Q 210.76 -10.83 211.01 -11.99 L 211.01 -11.99 L 222.79 -11.99 Q 221.13 -5.77 216.23 -2.5 Q 211.32 0.77 204.29 0.77 L 204.29 0.77 Z M 196.84 -21.13 L 210.87 -21.13 Q 210.73 -22.78 209.85 -24.12 Q 208.97 -25.45 207.42 -26.24 Q 205.88 -27.04 203.91 -27.04 L 203.91 -27.04 Q 200.88 -27.04 199.13 -25.4 Q 197.37 -23.77 196.84 -21.13 L 196.84 -21.13 Z M 240.47 0 L 240.47 -42.12 L 225.42 -42.12 L 225.42 -52.63 L 267.08 -52.63 L 267.08 -42.12 L 252.07 -42.12 L 252.07 0 L 240.47 0 Z M 277.88 0.77 Q 273.13 0.77 269.46 -1.53 Q 265.78 -3.83 263.74 -7.89 Q 261.7 -11.95 261.7 -17.02 L 261.7 -17.02 Q 261.7 -22.11 263.74 -26.19 Q 265.78 -30.27 269.46 -32.59 Q 273.13 -34.91 277.88 -34.91 L 277.88 -34.91 Q 281.43 -34.91 284.43 -33.75 Q 287.44 -32.59 289.55 -29.95 L 289.55 -29.95 L 289.55 -34.14 L 301.18 -34.14 L 301.18 0 L 289.55 0 L 289.55 -4.11 Q 287.93 -1.65 284.68 -0.44 Q 281.43 0.77 277.88 0.77 L 277.88 0.77 Z M 273.3 -17.02 Q 273.3 -14.73 274.24 -12.78 Q 275.17 -10.83 277 -9.67 Q 278.82 -8.51 281.43 -8.51 L 281.43 -8.51 Q 284.03 -8.51 285.86 -9.67 Q 287.68 -10.83 288.62 -12.78 Q 289.55 -14.73 289.55 -17.02 L 289.55 -17.02 Q 289.55 -19.34 288.62 -21.29 Q 287.68 -23.24 285.86 -24.4 Q 284.03 -25.56 281.43 -25.56 L 281.43 -25.56 Q 278.82 -25.56 277 -24.4 Q 275.17 -23.24 274.24 -21.29 Q 273.3 -19.34 273.3 -17.02 L 273.3 -17.02 Z M 333.67 0.77 Q 330.08 0.77 326.83 -0.44 Q 323.58 -1.65 321.96 -4.11 L 321.96 -4.11 L 321.96 0 L 310.36 0 L 310.36 -58.08 L 321.96 -58.08 L 321.96 -29.95 Q 325.97 -34.91 333.67 -34.91 L 333.67 -34.91 Q 338.41 -34.91 342.09 -32.59 Q 345.76 -30.27 347.8 -26.19 Q 349.84 -22.11 349.84 -17.02 L 349.84 -17.02 Q 349.84 -11.95 347.8 -7.89 Q 345.76 -3.83 342.09 -1.53 Q 338.41 0.77 333.67 0.77 L 333.67 0.77 Z M 321.96 -17.02 Q 321.96 -14.73 322.89 -12.78 Q 323.82 -10.83 325.65 -9.67 Q 327.48 -8.51 330.08 -8.51 L 330.08 -8.51 Q 332.68 -8.51 334.53 -9.67 Q 336.38 -10.83 337.31 -12.78 Q 338.24 -14.73 338.24 -17.02 L 338.24 -17.02 Q 338.24 -19.34 337.31 -21.29 Q 336.38 -23.24 334.55 -24.4 Q 332.72 -25.56 330.08 -25.56 L 330.08 -25.56 Q 327.48 -25.56 325.65 -24.4 Q 323.82 -23.24 322.89 -21.29 Q 321.96 -19.34 321.96 -17.02 L 321.96 -17.02 Z M 356.24 0 L 356.24 -58.08 L 367.84 -58.08 L 367.84 0 L 356.24 0 Z M 393.79 0.77 Q 387.95 0.77 383.43 -1.42 Q 378.91 -3.62 376.4 -7.65 Q 373.89 -11.67 373.89 -17.02 L 373.89 -17.02 Q 373.89 -22.25 376.45 -26.33 Q 379.02 -30.41 383.55 -32.66 Q 388.09 -34.91 393.79 -34.91 L 393.79 -34.91 Q 399.02 -34.91 403.33 -32.87 Q 407.64 -30.83 410.15 -26.95 Q 412.66 -23.06 412.66 -17.79 L 412.66 -17.79 L 412.66 -14.87 L 386.19 -14.87 Q 386.44 -11.6 388.41 -9.56 Q 390.38 -7.52 393.54 -7.52 L 393.54 -7.52 Q 395.47 -7.52 396.97 -8.16 Q 398.46 -8.79 399.36 -9.81 Q 400.25 -10.83 400.5 -11.99 L 400.5 -11.99 L 412.28 -11.99 Q 410.63 -5.77 405.72 -2.5 Q 400.82 0.77 393.79 0.77 L 393.79 0.77 Z M 386.33 -21.13 L 400.36 -21.13 Q 400.22 -22.78 399.34 -24.12 Q 398.46 -25.45 396.91 -26.24 Q 395.37 -27.04 393.4 -27.04 L 393.4 -27.04 Q 390.38 -27.04 388.62 -25.4 Q 386.86 -23.77 386.33 -21.13 L 386.33 -21.13 Z" stroke-linecap="round" />
</g>
</g>
</g>
</svg>